<?xml version="1.0" encoding="utf-8"?>
<!-- Generator: Adobe Illustrator 19.0.0, SVG Export Plug-In . SVG Version: 6.00 Build 0)  -->
<svg version="1.1" id="Layer_1" xmlns="http://www.w3.org/2000/svg" xmlns:xlink="http://www.w3.org/1999/xlink" x="0px" y="0px"
	 viewBox="0 0 207.9 69" enable-background="new 0 0 207.9 69" xml:space="preserve">
<g>
	<path id="XMLID_77_" fill="#FFFFFF" d="M31.1,7.6c-0.5,0.6-4.6,4.2-4.6,9.4c0.3,0,0.3,0,0.3,0c0-0.9,1-8,6-9.8
		C33.4,7,31.1,7.4,31.1,7.6z"/>
	<path id="XMLID_76_" fill="#FFFFFF" d="M37.4,7.2c5,1.9,6,8.9,6,9.8c0,0,0,0,0.3,0c0-5.1-4-8.8-4.6-9.4C39.2,7.4,36.9,7,37.4,7.2z"
		/>
	<rect id="XMLID_75_" x="34.7" y="7" fill="#FFFFFF" width="0.8" height="11"/>
	<path fill="#FFFFFF" d="M42.5,51.2c1.3-0.4,2.5-0.8,3.7-1.4V27.5h3.2V48c7.2-4.7,11.9-12.7,11.9-21.9C61.3,11.7,49.6,0,35.2,0
		C20.8,0,9.1,11.7,9.1,26.1c0,9.2,4.7,17.3,11.9,21.9V27.4h3.2v22.4c1.4,0.7,2.9,1.2,4.5,1.6C18.2,52.2,8.4,54.3,0,57.5
		c11.2-2.6,24-4.1,37.6-4.1c13.6,0,26.3,1.5,37.6,4.1C65.6,53.9,54.5,51.7,42.5,51.2z M50.3,26.9h-5V25h5V26.9z M35.2,5.4
		c0.6,0,1.1,0.5,1.1,1.1c-0.5,0-1.5,0-2.2,0C34.1,5.9,34.6,5.4,35.2,5.4z M35.2,6.9c12,0,15.1,11.6,15.1,11.6c-2.7,0-30.2,0-30.2,0
		S23.2,6.9,35.2,6.9z M17.6,19.1h35.3v2.3H17.6V19.1z M18.8,22h32.7v2.3H18.8V22z M25.1,26.9h-5V25h5V26.9z"/>
</g>
<g>
	<path fill="#FFFFFF" d="M84.3,22.2c0,1.4,0.2,2.2,0.8,2.5c0.1,0.1,0.1,0.3,0,0.4c-0.4,0-1,0.1-1.7,0.3c-1.8,0.5-4.3,0.9-6.2,0.9
		c-4.1,0-7.9-1.1-10.6-3.9c-2.1-2.1-3.2-4.8-3.2-7.9c0-3,1-5.9,3.1-8.2c2.3-2.4,5.8-4.1,11-4.1c2,0,3.8,0.4,4.4,0.5
		c0.7,0.1,1.7,0.4,2.2,0.3c0,1.1,0.2,3,0.5,5c-0.1,0.3-0.7,0.3-0.9,0.1c-1-3.8-3.6-4.9-7.1-4.9c-6.7,0-9.7,4.8-9.7,10
		c0,6.7,3.4,11.9,10.4,11.9c2.2,0,3.4-0.5,3.8-1c0.2-0.2,0.3-0.9,0.3-2v-1.4c0-2.9-0.1-3.1-2.3-3.4l-1.5-0.2c-0.3-0.1-0.2-0.8,0-0.9
		c1,0.1,2.9,0.1,5,0.1c1.4,0,2.5,0,3.7-0.1c0.2,0.1,0.3,0.7,0,0.9l-0.6,0.1c-1.5,0.2-1.5,1.1-1.5,2.9V22.2z"/>
	<path fill="#FFFFFF" d="M90.4,8c0-3.6-0.1-4.1-2.1-4.4l-0.6-0.1c-0.2-0.1-0.1-0.8,0.1-0.9c1.5,0.1,2.7,0.1,4.1,0.1h6.5
		c2.2,0,4.3,0,4.7-0.1c0.2,0.6,0.4,3.1,0.6,4.6c-0.1,0.2-0.7,0.3-0.9,0.1c-0.5-1.6-0.8-2.9-2.6-3.3c-0.7-0.2-1.8-0.2-3.4-0.2h-2.5
		c-1,0-1,0.1-1,1.4v7c0,1,0.1,1,1.1,1h2c1.5,0,2.5-0.1,3-0.2c0.4-0.1,0.7-0.3,0.8-1.2l0.3-1.4c0.2-0.2,0.8-0.2,0.9,0
		c0,0.8-0.1,2.2-0.1,3.5c0,1.3,0.1,2.6,0.1,3.3c-0.1,0.2-0.7,0.2-0.9,0l-0.3-1.4c-0.1-0.6-0.4-1.1-1.1-1.3c-0.5-0.1-1.3-0.2-2.7-0.2
		h-2c-1,0-1.1,0-1.1,0.9v4.9c0,1.8,0.1,3,0.7,3.6c0.4,0.4,1.1,0.8,4.2,0.8c2.7,0,3.7-0.1,4.5-0.5c0.6-0.3,1.6-1.6,2.5-3.4
		c0.2-0.2,0.7-0.1,0.9,0.2c-0.2,1.2-1.1,3.9-1.6,4.8c-3.1-0.1-6.2-0.1-9.3-0.1h-3.1c-1.5,0-2.7,0-4.7,0.1c-0.2-0.1-0.3-0.7-0.1-0.9
		l1.1-0.1c2-0.2,2.2-0.7,2.2-4.3V8z"/>
	<path fill="#FFFFFF" d="M106.1,14.5c0-7,5.2-12.3,12.4-12.3c8,0,12.1,5.8,12.1,11.9c0,7-5.4,12.1-12.1,12.1
		C110.8,26.3,106.1,20.8,106.1,14.5z M127.1,15.3c0-5.7-2.5-11.9-9.2-11.9c-3.6,0-8.3,2.5-8.3,10.1c0,5.1,2.5,11.8,9.4,11.8
		C123.2,25.3,127.1,22.1,127.1,15.3z"/>
	<path fill="#FFFFFF" d="M134.9,8.1c0-3.3-0.1-3.9-1.5-4.1l-1.1-0.1c-0.2-0.2-0.2-0.7,0-0.9c1.9-0.2,4.3-0.3,7.8-0.3
		c2.2,0,4.2,0.2,5.8,1c1.7,0.9,2.9,2.4,2.9,4.9c0,3.3-2.6,5.1-4.3,5.8c-0.2,0.2,0,0.6,0.2,0.8c2.8,4.5,4.6,7.3,7,9.3
		c0.6,0.5,1.5,0.9,2.4,1c0.2,0.1,0.2,0.3,0,0.5c-0.3,0.1-0.9,0.2-1.5,0.2c-3,0-4.7-0.9-7.2-4.4c-0.9-1.3-2.3-3.7-3.4-5.3
		c-0.5-0.8-1.1-1.1-2.5-1.1c-1.6,0-1.6,0-1.6,0.8v4.4c0,3.7,0.1,4.1,2.1,4.3l0.7,0.1c0.2,0.2,0.1,0.8-0.1,0.9
		c-1.6-0.1-2.7-0.1-4.1-0.1c-1.5,0-2.7,0-4.3,0.1c-0.2-0.1-0.3-0.6-0.1-0.9l0.9-0.1c2-0.2,2.1-0.7,2.1-4.3V8.1z M137.8,13
		c0,0.6,0,1,0.1,1.1c0.1,0.1,0.6,0.2,2.4,0.2c1.3,0,2.6-0.1,3.6-0.9c0.9-0.7,1.7-1.9,1.7-4.3c0-2.7-1.7-5.4-5.6-5.4
		c-2.2,0-2.3,0.1-2.3,1.1V13z"/>
	<path fill="#FFFFFF" d="M172.5,22.2c0,1.4,0.2,2.2,0.8,2.5c0.1,0.1,0.1,0.3,0,0.4c-0.4,0-1,0.1-1.7,0.3c-1.8,0.5-4.3,0.9-6.2,0.9
		c-4.1,0-7.9-1.1-10.6-3.9c-2.1-2.1-3.2-4.8-3.2-7.9c0-3,1-5.9,3.1-8.2c2.3-2.4,5.8-4.1,11-4.1c2,0,3.8,0.4,4.4,0.5
		c0.7,0.1,1.7,0.4,2.2,0.3c0,1.1,0.2,3,0.5,5c-0.1,0.3-0.7,0.3-0.9,0.1c-1-3.8-3.6-4.9-7.1-4.9c-6.7,0-9.7,4.8-9.7,10
		c0,6.7,3.4,11.9,10.4,11.9c2.2,0,3.4-0.5,3.8-1c0.2-0.2,0.3-0.9,0.3-2v-1.4c0-2.9-0.1-3.1-2.3-3.4l-1.5-0.2c-0.3-0.1-0.2-0.8,0-0.9
		c1,0.1,2.9,0.1,5,0.1c1.4,0,2.5,0,3.7-0.1c0.2,0.1,0.3,0.7,0,0.9l-0.6,0.1c-1.5,0.2-1.5,1.1-1.5,2.9V22.2z"/>
	<path fill="#FFFFFF" d="M178.6,8.1c0-3.7-0.1-4.3-2.1-4.5l-0.9-0.1c-0.2-0.1-0.1-0.8,0.1-0.9c1.7,0.1,2.9,0.1,4.4,0.1
		c1.4,0,2.6,0,4.3-0.1c0.2,0.1,0.3,0.7,0.1,0.9l-0.9,0.1c-2.1,0.2-2.1,0.8-2.1,4.5v12.4c0,3.7,0.1,4.2,2.1,4.4l0.9,0.1
		c0.2,0.1,0.1,0.8-0.1,0.9c-1.7-0.1-2.9-0.1-4.3-0.1c-1.5,0-2.6,0-4.4,0.1c-0.2-0.1-0.3-0.7-0.1-0.9l0.9-0.1
		c2.1-0.2,2.1-0.7,2.1-4.4V8.1z"/>
	<path fill="#FFFFFF" d="M198.3,17.7c-0.2-0.8-0.4-0.9-1.4-0.9h-5.3c-0.9,0-1.1,0.1-1.3,0.8l-1.2,3.7c-0.5,1.6-0.8,2.5-0.8,2.9
		c0,0.4,0.2,0.6,1,0.7l1.1,0.1c0.2,0.2,0.2,0.7-0.1,0.9c-0.9-0.1-2-0.1-3.6-0.1c-1.1,0-2.4,0.1-3.3,0.1c-0.2-0.1-0.3-0.7-0.1-0.9
		l1.1-0.1c0.8-0.1,1.6-0.5,2.1-1.7c0.6-1.6,1.6-3.9,3.1-7.8l3.5-9.4c0.5-1.3,0.7-1.9,0.6-2.5c0.8-0.2,1.4-0.9,1.8-1.3
		c0.2,0,0.5,0.1,0.5,0.3c0.5,1.5,1,3.1,1.5,4.7l4.8,14c1,3,1.5,3.5,3,3.7l0.9,0.1c0.2,0.2,0.2,0.7,0,0.9c-1.4-0.1-2.6-0.1-4.2-0.1
		c-1.7,0-3,0.1-4,0.1c-0.3-0.1-0.3-0.7-0.1-0.9l1-0.1c0.7-0.1,1.2-0.3,1.2-0.6c0-0.4-0.2-1-0.5-1.8L198.3,17.7z M191.4,14.6
		c-0.3,0.8-0.2,0.8,0.7,0.8h4.3c1,0,1.1-0.1,0.8-1.1l-1.9-5.7c-0.3-0.8-0.6-1.8-0.8-2.2h-0.1c-0.1,0.2-0.5,1-0.8,2.1L191.4,14.6z"/>
	<path fill="#FFFFFF" d="M67.6,32.6c2.5-2,5.8-3,9.4-3c1.9,0,4.5,0.4,6.2,0.8c0.4,0.1,0.7,0.2,1,0.1c0,0.8,0.2,3,0.5,5.1
		c-0.2,0.2-0.7,0.3-0.9,0.1c-0.5-2.4-2.1-5.1-7.1-5.1c-5.3,0-9.8,3.4-9.8,10.6c0,7.3,4.6,11.3,10.3,11.3c4.5,0,6.5-2.9,7.3-5
		c0.2-0.2,0.8-0.1,0.9,0.1c-0.2,1.8-1.1,4.1-1.7,4.8c-0.4,0.1-0.8,0.2-1.2,0.3c-0.8,0.3-3.3,0.8-5.5,0.8c-3.1,0-6.1-0.6-8.7-2.3
		c-2.8-1.9-4.9-5.1-4.9-9.6C63.3,37.9,65,34.6,67.6,32.6z"/>
	<path fill="#FFFFFF" d="M85.8,41.9c0-7,5.2-12.3,12.4-12.3c8,0,12.1,5.8,12.1,11.9c0,7-5.4,12.1-12.1,12.1
		C90.5,53.7,85.8,48.1,85.8,41.9z M106.8,42.6c0-5.7-2.5-11.9-9.2-11.9c-3.6,0-8.3,2.5-8.3,10.1c0,5.1,2.5,11.8,9.4,11.8
		C102.8,52.6,106.8,49.5,106.8,42.6z"/>
	<path fill="#FFFFFF" d="M114.6,35.4c0-3.7-0.1-4.2-2.3-4.4l-0.9-0.1c-0.2-0.1-0.1-0.8,0.1-0.9c1.9,0.1,3.1,0.1,4.5,0.1
		c1.4,0,2.5,0,4.3-0.1c0.2,0.1,0.3,0.7,0.1,0.9l-0.8,0.1c-2.1,0.2-2.1,0.7-2.1,4.4v12.1c0,2.2,0.1,3.1,0.7,3.8
		c0.4,0.4,1,0.8,3.8,0.8c3,0,3.7-0.1,4.2-0.5c0.7-0.4,1.6-1.7,2.3-3.4c0.2-0.2,0.9,0,0.9,0.2c0,0.4-1,3.9-1.5,4.9
		c-1.8-0.1-5.1-0.1-8.7-0.1H116c-1.5,0-2.6,0-4.5,0.1c-0.2-0.1-0.3-0.7-0.1-0.9l1-0.1c2-0.2,2.1-0.7,2.1-4.3V35.4z"/>
	<path fill="#FFFFFF" d="M132.1,35.4c0-3.7-0.1-4.2-2.3-4.4l-0.9-0.1c-0.2-0.1-0.1-0.8,0.1-0.9c1.9,0.1,3.1,0.1,4.5,0.1
		c1.4,0,2.5,0,4.3-0.1c0.2,0.1,0.3,0.7,0.1,0.9L137,31c-2.1,0.2-2.1,0.7-2.1,4.4v12.1c0,2.2,0.1,3.1,0.7,3.8c0.4,0.4,1,0.8,3.8,0.8
		c3,0,3.7-0.1,4.2-0.5c0.7-0.4,1.6-1.7,2.3-3.4c0.2-0.2,0.9,0,0.9,0.2c0,0.4-1,3.9-1.5,4.9c-1.8-0.1-5.1-0.1-8.7-0.1h-3.2
		c-1.5,0-2.6,0-4.5,0.1c-0.2-0.1-0.3-0.7-0.1-0.9l1-0.1c2-0.2,2.1-0.7,2.1-4.3V35.4z"/>
	<path fill="#FFFFFF" d="M149.6,35.4c0-3.6-0.1-4.1-2.1-4.4l-0.6-0.1c-0.2-0.1-0.1-0.8,0.1-0.9c1.5,0.1,2.7,0.1,4.1,0.1h6.5
		c2.2,0,4.3,0,4.7-0.1c0.2,0.6,0.4,3.1,0.6,4.6c-0.1,0.2-0.7,0.3-0.9,0.1c-0.5-1.6-0.8-2.9-2.6-3.3c-0.7-0.2-1.8-0.2-3.4-0.2h-2.5
		c-1,0-1,0.1-1,1.4v7c0,1,0.1,1,1.1,1h2c1.5,0,2.5-0.1,3-0.2c0.4-0.1,0.7-0.3,0.8-1.2l0.3-1.4c0.2-0.2,0.8-0.2,0.9,0
		c0,0.8-0.1,2.2-0.1,3.5c0,1.3,0.1,2.6,0.1,3.3c-0.1,0.2-0.7,0.2-0.9,0l-0.3-1.4c-0.1-0.6-0.4-1.1-1.1-1.3c-0.5-0.1-1.3-0.2-2.7-0.2
		h-2c-1,0-1.1,0-1.1,0.9v4.9c0,1.8,0.1,3,0.7,3.6c0.4,0.4,1.1,0.8,4.2,0.8c2.7,0,3.7-0.1,4.5-0.5c0.6-0.3,1.6-1.6,2.5-3.4
		c0.2-0.2,0.7-0.1,0.9,0.2c-0.2,1.2-1.1,3.9-1.6,4.8c-3.1-0.1-6.2-0.1-9.3-0.1h-3.1c-1.5,0-2.7,0-4.7,0.1c-0.2-0.1-0.3-0.7-0.1-0.9
		l1.1-0.1c2-0.2,2.2-0.7,2.2-4.3V35.4z"/>
	<path fill="#FFFFFF" d="M186.2,49.6c0,1.4,0.2,2.2,0.8,2.5c0.1,0.1,0.1,0.3,0,0.4c-0.4,0-1,0.1-1.7,0.3c-1.8,0.5-4.3,0.9-6.2,0.9
		c-4.1,0-7.9-1.1-10.6-3.9c-2.1-2.1-3.2-4.8-3.2-7.9c0-3,1-5.9,3.1-8.2c2.3-2.4,5.8-4.1,11-4.1c2,0,3.8,0.4,4.4,0.5
		c0.7,0.1,1.7,0.4,2.2,0.3c0,1.1,0.2,3,0.5,5c-0.1,0.3-0.7,0.3-0.9,0.1c-1-3.8-3.6-4.9-7.1-4.9c-6.7,0-9.7,4.8-9.7,10
		c0,6.7,3.4,11.9,10.4,11.9c2.2,0,3.4-0.5,3.8-1c0.2-0.2,0.3-0.9,0.3-2v-1.4c0-2.9-0.1-3.1-2.3-3.4l-1.5-0.2c-0.3-0.1-0.2-0.8,0-0.9
		c1,0.1,2.9,0.1,5,0.1c1.4,0,2.5,0,3.7-0.1c0.2,0.1,0.3,0.7,0,0.9l-0.6,0.1c-1.5,0.2-1.5,1.1-1.5,2.9V49.6z"/>
	<path fill="#FFFFFF" d="M192.4,35.4c0-3.6-0.1-4.1-2.1-4.4l-0.6-0.1c-0.2-0.1-0.1-0.8,0.1-0.9c1.5,0.1,2.7,0.1,4.1,0.1h6.5
		c2.2,0,4.3,0,4.7-0.1c0.2,0.6,0.4,3.1,0.6,4.6c-0.1,0.2-0.7,0.3-0.9,0.1c-0.5-1.6-0.8-2.9-2.6-3.3c-0.7-0.2-1.8-0.2-3.4-0.2h-2.5
		c-1,0-1,0.1-1,1.4v7c0,1,0.1,1,1.1,1h2c1.5,0,2.5-0.1,3-0.2c0.4-0.1,0.7-0.3,0.8-1.2l0.3-1.4c0.2-0.2,0.8-0.2,0.9,0
		c0,0.8-0.1,2.2-0.1,3.5c0,1.3,0.1,2.6,0.1,3.3c-0.1,0.2-0.7,0.2-0.9,0l-0.3-1.4c-0.1-0.6-0.4-1.1-1.1-1.3c-0.5-0.1-1.3-0.2-2.7-0.2
		h-2c-1,0-1.1,0-1.1,0.9v4.9c0,1.8,0.1,3,0.7,3.6c0.4,0.4,1.1,0.8,4.2,0.8c2.7,0,3.7-0.1,4.5-0.5c0.6-0.3,1.6-1.6,2.5-3.4
		c0.2-0.2,0.7-0.1,0.9,0.2c-0.2,1.2-1.1,3.9-1.6,4.8c-3.1-0.1-6.2-0.1-9.3-0.1h-3.1c-1.5,0-2.7,0-4.7,0.1c-0.2-0.1-0.3-0.7-0.1-0.9
		l1.1-0.1c2-0.2,2.2-0.7,2.2-4.3V35.4z"/>
</g>
<g>
	<path fill="#FFFFFF" d="M14.1,64c-0.4-0.4-1-0.7-1.7-0.7c-1.5,0-2.4,1.2-2.4,2.6c0,1.4,0.9,2.6,2.4,2.6c0.6,0,1.2-0.2,1.6-0.4v-2
		h-1.4v-0.6h2v2.9c-0.7,0.4-1.5,0.6-2.2,0.6c-1.8,0-3.1-1.3-3.1-3.1c0-1.8,1.3-3.1,3.1-3.1c0.9,0,1.6,0.3,2.1,0.8L14.1,64z"/>
	<path fill="#FFFFFF" d="M17.3,68.3h3.2v0.6h-3.8v-5.9h3.7v0.6h-3.1v2h2.9V66h-2.9V68.3z"/>
	<path fill="#FFFFFF" d="M24.8,69c-1.8,0-3.1-1.3-3.1-3.1c0-1.8,1.3-3.1,3.1-3.1c1.8,0,3.1,1.3,3.1,3.1C27.9,67.7,26.6,69,24.8,69z
		 M24.8,63.3c-1.5,0-2.4,1.2-2.4,2.6c0,1.4,0.9,2.6,2.4,2.6c1.5,0,2.4-1.2,2.4-2.6C27.3,64.5,26.3,63.3,24.8,63.3z"/>
	<path fill="#FFFFFF" d="M30.2,68.8h-0.6v-5.9h1.8c1.2,0,1.9,0.5,1.9,1.6c0,0.8-0.5,1.4-1.5,1.5l1.7,2.8h-0.7l-1.6-2.7h-1V68.8z
		 M30.2,65.5h1.1c1.1,0,1.4-0.5,1.4-1c0-0.6-0.4-1-1.4-1h-1.1V65.5z"/>
	<path fill="#FFFFFF" d="M39.4,64c-0.4-0.4-1-0.7-1.7-0.7c-1.5,0-2.4,1.2-2.4,2.6c0,1.4,0.9,2.6,2.4,2.6c0.6,0,1.2-0.2,1.6-0.4v-2
		H38v-0.6h2v2.9c-0.7,0.4-1.5,0.6-2.2,0.6c-1.8,0-3.1-1.3-3.1-3.1c0-1.8,1.3-3.1,3.1-3.1c0.9,0,1.6,0.3,2.1,0.8L39.4,64z"/>
	<path fill="#FFFFFF" d="M42.7,68.8h-0.6v-5.9h0.6V68.8z"/>
	<path fill="#FFFFFF" d="M44.7,68.8H44l2.6-5.9h0.6l2.6,5.9H49l-0.7-1.6h-3L44.7,68.8z M45.6,66.7h2.6l-1.3-3.1L45.6,66.7z"/>
	<path fill="#FFFFFF" d="M50.5,64.9H50l0.6-2h0.7L50.5,64.9z"/>
	<path fill="#FFFFFF" d="M55.8,63.9c-0.3-0.4-0.6-0.6-1.1-0.6c-0.6,0-1.3,0.3-1.3,1.1c0,1.6,3,0.8,3,2.9c0,1.1-1,1.7-1.9,1.7
		c-0.7,0-1.4-0.3-1.9-0.9l0.5-0.4c0.3,0.4,0.7,0.7,1.3,0.7c0.6,0,1.3-0.4,1.3-1.1c0-1.7-3-0.7-3-2.9c0-1.1,1-1.7,1.9-1.7
		c0.7,0,1.2,0.2,1.7,0.7L55.8,63.9z"/>
	<path fill="#FFFFFF" d="M60.9,62.9h1.7c1.2,0,1.9,0.5,1.9,1.6c0,1.1-0.7,1.6-1.9,1.6h-1.1v2.7h-0.6V62.9z M61.5,65.5h1
		c1.1,0,1.4-0.5,1.4-1c0-0.6-0.4-1-1.4-1h-1V65.5z"/>
	<path fill="#FFFFFF" d="M70.5,66.6c0,1-0.4,2.4-2.2,2.4c-1.8,0-2.2-1.4-2.2-2.4v-3.7h0.6v3.6c0,1.7,1.1,1.9,1.6,1.9
		c0.5,0,1.6-0.2,1.6-1.9v-3.6h0.6V66.6z"/>
	<path fill="#FFFFFF" d="M72.5,62.9h1.8c1,0,1.9,0.4,1.9,1.5c0,0.6-0.4,1.1-1,1.3v0c0.8,0.1,1.3,0.6,1.3,1.5c0,0.4-0.3,1.6-2.2,1.6
		h-1.8V62.9z M73.1,65.5h1.2c0.6,0,1.2-0.3,1.2-1c0-0.2-0.1-1-1.3-1h-1.2V65.5z M73.1,68.3h1.2c0.9,0,1.6-0.3,1.6-1.1
		S75.3,66,74.3,66h-1.2V68.3z"/>
	<path fill="#FFFFFF" d="M78.8,68.3h2.8v0.6h-3.4v-5.9h0.6V68.3z"/>
	<path fill="#FFFFFF" d="M83.5,68.8h-0.6v-5.9h0.6V68.8z"/>
	<path fill="#FFFFFF" d="M90.5,67.9c-0.4,0.6-1.2,1.1-2.2,1.1c-1.8,0-3.1-1.3-3.1-3.1c0-1.8,1.3-3.1,3.1-3.1c0.7,0,1.5,0.3,2,0.9
		l-0.5,0.4c-0.2-0.4-0.9-0.8-1.5-0.8c-1.5,0-2.4,1.2-2.4,2.6c0,1.4,0.9,2.6,2.4,2.6c0.6,0,1.3-0.2,1.7-0.9L90.5,67.9z"/>
	<path fill="#FFFFFF" d="M95.4,68.3h2.8v0.6h-3.4v-5.9h0.6V68.3z"/>
	<path fill="#FFFFFF" d="M100.1,68.8h-0.6v-5.9h0.6V68.8z"/>
	<path fill="#FFFFFF" d="M102.2,62.9h1.8c1,0,1.9,0.4,1.9,1.5c0,0.6-0.4,1.1-1,1.3v0c0.8,0.1,1.3,0.6,1.3,1.5c0,0.4-0.3,1.6-2.2,1.6
		h-1.8V62.9z M102.8,65.5h1.2c0.6,0,1.2-0.3,1.2-1c0-0.2-0.1-1-1.3-1h-1.2V65.5z M102.8,68.3h1.2c0.9,0,1.6-0.3,1.6-1.1
		S105,66,104.1,66h-1.2V68.3z"/>
	<path fill="#FFFFFF" d="M108.6,68.3h3.2v0.6H108v-5.9h3.7v0.6h-3.1v2h2.9V66h-2.9V68.3z"/>
	<path fill="#FFFFFF" d="M114.1,68.8h-0.6v-5.9h1.8c1.2,0,1.9,0.5,1.9,1.6c0,0.8-0.5,1.4-1.5,1.5l1.7,2.8h-0.7l-1.6-2.7h-1V68.8z
		 M114.1,65.5h1.1c1.1,0,1.4-0.5,1.4-1c0-0.6-0.4-1-1.4-1h-1.1V65.5z"/>
	<path fill="#FFFFFF" d="M118.8,68.8h-0.7l2.6-5.9h0.6l2.6,5.9h-0.7l-0.7-1.6h-3L118.8,68.8z M119.7,66.7h2.6l-1.3-3.1L119.7,66.7z"
		/>
	<path fill="#FFFFFF" d="M125.7,68.3h2.8v0.6h-3.4v-5.9h0.6V68.3z"/>
	<path fill="#FFFFFF" d="M132.6,68.8h-0.7l2.6-5.9h0.6l2.6,5.9h-0.7l-0.7-1.6h-3L132.6,68.8z M133.4,66.7h2.6l-1.3-3.1L133.4,66.7z"
		/>
	<path fill="#FFFFFF" d="M139.5,68.8h-0.6v-5.9h1.8c1.2,0,1.9,0.5,1.9,1.6c0,0.8-0.5,1.4-1.5,1.5l1.7,2.8h-0.7l-1.6-2.7h-1V68.8z
		 M139.5,65.5h1.1c1.1,0,1.4-0.5,1.4-1c0-0.6-0.4-1-1.4-1h-1.1V65.5z"/>
	<path fill="#FFFFFF" d="M146.3,68.8h-0.6v-5.4h-2v-0.6h4.6v0.6h-2V68.8z"/>
	<path fill="#FFFFFF" d="M152.5,63.9c-0.3-0.4-0.6-0.6-1.1-0.6c-0.6,0-1.3,0.3-1.3,1.1c0,1.6,3,0.8,3,2.9c0,1.1-1,1.7-1.9,1.7
		c-0.7,0-1.4-0.3-1.9-0.9l0.5-0.4c0.3,0.4,0.7,0.7,1.3,0.7c0.6,0,1.3-0.4,1.3-1.1c0-1.7-3-0.7-3-2.9c0-1.1,1-1.7,1.9-1.7
		c0.7,0,1.2,0.2,1.7,0.7L152.5,63.9z"/>
	<path fill="#FFFFFF" d="M161.9,66.6c0,1-0.4,2.4-2.2,2.4c-1.8,0-2.2-1.4-2.2-2.4v-3.7h0.6v3.6c0,1.7,1.1,1.9,1.6,1.9
		c0.5,0,1.6-0.2,1.6-1.9v-3.6h0.6V66.6z"/>
	<path fill="#FFFFFF" d="M168.2,67.9L168.2,67.9l0-5h0.6v5.9H168l-3.5-5.1h0v5.1h-0.6v-5.9h0.8L168.2,67.9z"/>
	<path fill="#FFFFFF" d="M171.5,68.8h-0.6v-5.9h0.6V68.8z"/>
	<path fill="#FFFFFF" d="M175.3,67.9L175.3,67.9l2-5h0.7l-2.3,5.9H175l-2.2-5.9h0.7L175.3,67.9z"/>
	<path fill="#FFFFFF" d="M179.8,68.3h3.2v0.6h-3.8v-5.9h3.7v0.6h-3.1v2h2.9V66h-2.9V68.3z"/>
	<path fill="#FFFFFF" d="M185.3,68.8h-0.6v-5.9h1.8c1.2,0,1.9,0.5,1.9,1.6c0,0.8-0.5,1.4-1.5,1.5l1.7,2.8h-0.7l-1.6-2.7h-1V68.8z
		 M185.3,65.5h1.1c1.1,0,1.4-0.5,1.4-1c0-0.6-0.4-1-1.4-1h-1.1V65.5z"/>
	<path fill="#FFFFFF" d="M192.9,63.9c-0.3-0.4-0.6-0.6-1.1-0.6c-0.6,0-1.3,0.3-1.3,1.1c0,1.6,3,0.8,3,2.9c0,1.1-1,1.7-1.9,1.7
		c-0.7,0-1.4-0.3-1.9-0.9l0.5-0.4c0.3,0.4,0.7,0.7,1.3,0.7c0.6,0,1.3-0.4,1.3-1.1c0-1.7-3-0.7-3-2.9c0-1.1,1-1.7,1.9-1.7
		c0.7,0,1.2,0.2,1.7,0.7L192.9,63.9z"/>
	<path fill="#FFFFFF" d="M195.9,68.8h-0.6v-5.9h0.6V68.8z"/>
	<path fill="#FFFFFF" d="M199.9,68.8h-0.6v-5.4h-2v-0.6h4.6v0.6h-2V68.8z"/>
	<path fill="#FFFFFF" d="M205.2,68.8h-0.6v-2.5l-2.2-3.4h0.8l1.8,2.8l1.8-2.8h0.8l-2.2,3.4V68.8z"/>
</g>
</svg>
